<svg id="Layer_1" data-name="Layer 1" xmlns="http://www.w3.org/2000/svg" viewBox="0 0 860.61 648"><defs><style>.cls-1{fill:none;}</style></defs><title>Free Family Tree Silhouette</title><path class="cls-1" d="M424.7,539.21c.59.89,1.16,1.79,1.71,2.65-.05-.84-.14-1.68-.22-2.53C425.67,539.3,425.18,539.25,424.7,539.21Z" transform="translate(-81.69 -188)"/><path class="cls-1" d="M497.23,567.81c-27.69-5-45.88-16.88-57.82-30-1.48.38-2.88.66-4.23.89a108.92,108.92,0,0,1-.34,24,118.35,118.35,0,0,1-3.51,20s46.34,15.68,91,36.94c-2.3-28.46-2.87-49.07-2.87-49.07A132.83,132.83,0,0,1,497.23,567.81Z" transform="translate(-81.69 -188)"/><path class="cls-1" d="M292.58,421.66s7.71-5.9,17.17,3.13a101.33,101.33,0,0,1,30-6.2c.95-8.22,5.28-36.35,21.2-56.45-5.3-10.6,1.86-15.71,1.86-15.71-2.66,7-1.23,10.79.62,12.77A54.37,54.37,0,0,1,383,344.93c-2-1.36-4-2.59-5.95-3.71a17.57,17.57,0,0,1-9.12,4.3,27.23,27.23,0,0,1-.23-8.77,76.55,76.55,0,0,0-11.82-3.59c-11.43,7.41-16.91,1.37-18.81-1.72-.86,0-1.69.08-2.48.14,5.35,11.51-4.36,13.75-4.36,13.75-4.57-6.88-1.17-11.33,1.47-13.47a40.38,40.38,0,0,0-5.75,1.08,59.4,59.4,0,0,0-15.86,7c14.51,2.88,12.3,18.4,12.3,18.4-15.26-1.44-18.06-8.94-18.14-14a49,49,0,0,0-11.34,14.3c19.23-.49,26.37,18,26.37,18-16.6,4.34-26.08,1-31.46-3.67a43.22,43.22,0,0,0-1,8,73.7,73.7,0,0,1-1.14-10.14,21.18,21.18,0,0,1-4.75-9.69,42.73,42.73,0,0,1,5.45-1.61c2.54-14.7,11.34-23.8,21.24-29.46-9.89,1.95-21.47,7.57-30.64,21.71-4.65,7.16-19.41,41.26,8.47,77.88q2.56,3.36,5.14,6.64a62.41,62.41,0,0,1,15.21-9.76C304.36,423.86,300.86,421.14,292.58,421.66Zm-17-20.12c22.45-24,44.94-3.73,44.94-3.73C291.13,423.71,275.59,401.54,275.59,401.54Z" transform="translate(-81.69 -188)"/><path class="cls-1" d="M321.66,428.37a26.07,26.07,0,0,1,14.49,16.25,32.87,32.87,0,0,1,4.39-6.85,45.35,45.35,0,0,1-1.44-11.7A127.86,127.86,0,0,0,321.66,428.37Z" transform="translate(-81.69 -188)"/><path class="cls-1" d="M372.25,487.59c-34.07,2.87-43.91-16.88-43.91-16.88,19.6,12.67,31.18,11.5,37.24,8.68-4-4.91-8.07-10.06-12-15.22a79.29,79.29,0,0,1-11.65-21.74c-2.21,1.55-4,2.93-5.23,3.92a32,32,0,0,1,1.14,9c-23.58-4-28.42-15.93-29-23.45a75.6,75.6,0,0,0-15.64,7.48c21,26.25,44.81,50.66,98.22,100.76,6.28,5.9,12.79,10.7,23,25.69,0,0,1.22-20.93-26.71-59C384.32,502.3,378.71,495.48,372.25,487.59Z" transform="translate(-81.69 -188)"/><path class="cls-1" d="M593.22,581.08c-19.35-20.44-27-40.77-28.87-58.4-20.62-8.29-20.5-21.72-20.5-21.72,7.87,12.17,15.21,15.33,20.08,15.8a90.24,90.24,0,0,1,2.18-23.07c-4.57-4.82-10.41-13.76-11.67-28.62-6,1.3-14.24.17-25.34-6.19,0,0,5.38-10.57,15.74-14.19a69.8,69.8,0,0,0-11.08-4.62,12.55,12.55,0,0,1-6.7,3.82c-3,9.58-3.94,21.57-3.63,33.88,5,.35,14.69,2.85,14.17,16.8,0,0-8.4,2.79-13.47-4.3,1.74,20.56,6.11,40,9.1,48.38,11.36,31.89,13.39,64.48,15.81,94.67,4.57,2.52,9,5.08,13.26,7.68a141.35,141.35,0,0,1,13.06,8.81c18.33-30.6,34.1-53.37,34.1-53.37A131,131,0,0,1,593.22,581.08ZM528.33,511s-5.36-10.88,10.48-14.09C538.81,496.92,542.06,509.65,528.33,511Zm23.77-28.14s1.93,13-11.86,12.93C540.24,495.8,536,484.43,552.1,482.87Zm-11.82,43.54s9.67-11.35,21,5C561.29,531.37,548.51,541.25,540.28,526.41Z" transform="translate(-81.69 -188)"/><path class="cls-1" d="M386.75,471.54a81,81,0,0,1,31.15,23.88,61.29,61.29,0,0,1-1.21-7.91c1.78,4.16,3.65,8,5.57,11.71,2.94-3.16,5.77-9.16,5.24-20.41-1-1.69-2-3.37-3.05-5-8.21,3.75-12.76-4.74-12.76-4.74a16.44,16.44,0,0,1,7.79-2.72,175.22,175.22,0,0,0-11.57-14.77,23.65,23.65,0,0,1-6.58,5.35c-18.39,18.52-37.69,2.85-37.69,2.85,12.18,3.92,21.14,2.53,27.66-.95a21.86,21.86,0,0,1-10.17-4c3.05-9.55,8-14.42,13.14-16.7-4-3.24-7.67-5.58-10.76-6.65a26.84,26.84,0,0,0-5.09-1.19c-.69,7.88-5.15,17.61-21.3,22.77a160.17,160.17,0,0,0,22.63,29.14c7.77,7.84,31.72,36.76,37.65,46,1.74,2.7,3.37,5.14,4.88,7.42a30.92,30.92,0,0,0,3.49.18C423.11,516.51,413.06,493.8,386.75,471.54Z" transform="translate(-81.69 -188)"/><path class="cls-1" d="M588.11,353.54c4-9.17,14.59-24.61,40.12-19.94,0,0,.79,29.41-41.35,26.3a59.76,59.76,0,0,0-.33,12c2.44-.11,4.9-.17,7.44-.11a365.38,365.38,0,0,0,43.83-1.89c0-1.65.06-3.3.08-5,.25-20.39-5.34-35.89-12.67-47.36C601.21,325.6,591.57,340.23,588.11,353.54Z" transform="translate(-81.69 -188)"/><path class="cls-1" d="M599.22,473.36c-.52,11.24-1,21-1,27.18.29,52.08,15.14,69.81,15.14,69.81-.81-20,1.8-28.52,3.48-37.88,4.88-27,8.68-49.19,11.64-68.11A89,89,0,0,1,608.15,467,81.78,81.78,0,0,1,599.22,473.36Z" transform="translate(-81.69 -188)"/><path class="cls-1" d="M659.47,367.25c.24-.51.5-.95.74-1.44-1.88.49-3.85.94-5.94,1.33,0,.27,0,.58,0,.85,1.77-.24,3.55-.47,5.29-.72Z" transform="translate(-81.69 -188)"/><path class="cls-1" d="M608.53,422.17s-16.21-19.53-.13-39.38c-6.49-.1-10.87-.48-13.43-.15a93.26,93.26,0,0,0-16.82,3.69c4,3.86,6.25,6.46,6.25,6.46h0c13.36,12.89,16.21,35.56,16,47.53h0a47.08,47.08,0,0,0,1.91-10.1s5.66,10.29-2.2,22.09c-.06,1.69-.13,3.35-.19,5,2.58.36,5.24.62,8,.8C614,454,621,445.72,627,429.53c0,0,2.4,13.6-10.1,28.8a123.72,123.72,0,0,0,12.65-1c3.75-24.83,5.95-44,7.14-61.73A56.4,56.4,0,0,1,622,390.52C623.36,398.17,621.24,408.87,608.53,422.17Z" transform="translate(-81.69 -188)"/><path class="cls-1" d="M637,390.74c.19-3.31.35-6.59.48-9.86-5.76.83-10.93,1.34-15.48,1.62C625.05,385.47,629.75,388.48,637,390.74Z" transform="translate(-81.69 -188)"/><path class="cls-1" d="M375.41,430c-9.2-.3-18.57,3.5-26,7.69a89.58,89.58,0,0,0,5.48,11.51C362.05,447.51,371.79,442.8,375.41,430Z" transform="translate(-81.69 -188)"/><path class="cls-1" d="M497.2,366.57c1.7,16.93,3.67,35,5.64,52.37,2.69-2.48,7-4.12,13.48-1.09,0,0-.8,10.3-12.63,8.5,1.19,10.32,2.37,20.33,3.47,29.59a90,90,0,0,1,4.41-16.23c-.42-.27-.85-.53-1.29-.83a21.63,21.63,0,0,1,3.16-3.84,166.26,166.26,0,0,1,8.33-16.44,157.12,157.12,0,0,1,9.76-15.27c-2.2-1-4.47-3.55-3.45-10,0,0,5.63.63,7,5.38A88.24,88.24,0,0,1,545,388.18a86.42,86.42,0,0,0-11.73.12,35.27,35.27,0,0,1,19.31-6,60,60,0,0,1,5.57-3.28,146.93,146.93,0,0,0-18.6-11.66C529.36,371.14,515.66,372,497.2,366.57Zm13.37,34.32s3.11-12.53,15.62-7.31C526.19,393.58,525.78,405.48,510.57,400.89Zm17.12-8.79s-8.72,0-5.72-11.24C522,380.86,531.2,382.83,527.69,392.1Z" transform="translate(-81.69 -188)"/><path class="cls-1" d="M590,465.27a95.77,95.77,0,0,1-23.65-8.15,21.37,21.37,0,0,1-4.4,4.56c-1.44,6.05-1,15.08,5.19,28.05a81.49,81.49,0,0,1,8.73-21.05,152,152,0,0,0-4.06,29.7v0h0c-.83,25.54,6.11,44.68,15.18,58.64-.39-5.24-.57-11.08-1.05-18.07-.8-12.06,1.39-53.42,3.12-65.47C589.41,470.79,589.71,468,590,465.27Z" transform="translate(-81.69 -188)"/><path class="cls-1" d="M355.84,425.82c-3-.1-5.91-.11-8.71-.06a20.41,20.41,0,0,0-.1,2.08,21.08,21.08,0,0,0,.43,3.3c.75-.57,1.47-1.1,2.15-1.59l.9-.63A45.55,45.55,0,0,1,355.84,425.82Z" transform="translate(-81.69 -188)"/><path class="cls-1" d="M537.24,419.32a92.39,92.39,0,0,0,48.62,35,15.29,15.29,0,0,0,4.78-1.32,178,178,0,0,0-.74-20.16C557.1,444,549.5,414.9,549.5,414.9,563.73,434.58,580,432,589.35,428c-1.4-10.66-3.85-19.43-7.07-24.1-4.11-5.94-10.41-9.69-17.14-12A70.1,70.1,0,0,0,537.24,419.32Z" transform="translate(-81.69 -188)"/><path class="cls-1" d="M673.54,354.19a59,59,0,0,0,13.23-8.87A50.25,50.25,0,0,0,673.54,354.19Z" transform="translate(-81.69 -188)"/><path class="cls-1" d="M435.56,533.3c-.5-.62-.95-1.26-1.41-1.89.14.8.28,1.59.41,2.41C434.89,533.65,435.26,533.48,435.56,533.3Z" transform="translate(-81.69 -188)"/><path class="cls-1" d="M529.58,362.75c-13.64-5.48-24.85-6.58-33.34-5.95l.06.63C501.58,360,514.65,365.29,529.58,362.75Z" transform="translate(-81.69 -188)"/><path class="cls-1" d="M719.51,356.13c-26.55,11.36-48.16,18-65.51,21.75-.18,4.77-.44,10.15-.75,15.94,1.47.14,3,.27,4.57.37a22.49,22.49,0,0,1-4.67,1.47c-1,17.63-2.46,38.73-3.89,57.75,3.12-.85,6.3-1.81,9.56-2.91a68.89,68.89,0,0,1-9.8,6.06c-2,27.14-3.92,49.23-3.92,49.23,42-83.54,48.32-93.52,70.22-126.51A92.15,92.15,0,0,0,719.51,356.13Zm-53,67.93s-19.59-23.57,5.63-45.25C672.11,378.81,693.88,395.42,666.48,424.06Z" transform="translate(-81.69 -188)"/><path class="cls-1" d="M349.52,402.35a42.75,42.75,0,0,1,4.12-3.79c.25-.2.51-.41.78-.61,4.31-3.3,10.76-7.61,19.88-7.94,0,0-19.84,12-25.65,28.3a155.51,155.51,0,0,1,28.13,2.58c0-.9.08-1.78.07-2.73a22.84,22.84,0,0,1,.87,2.91l1,.2,0,0c11.2,1.5,21.4,8.25,29.24,15.49a30.91,30.91,0,0,1,7.59,2.35c-.56,1.29-1.14,2.47-1.72,3.61a83.55,83.55,0,0,1,5.94,7.36c1.74,2.44,3.46,4.91,5.16,7.38,1.34-5.92,7.13-9.27,7.13-9.27,3.48,5.39,4.38,9.53,4,12.67,2.72-6.92,3.7-17.91-1.2-35.24,0,0,15.55,14.83,5.76,45.63a8.77,8.77,0,0,1,3.67,5.38,13.54,13.54,0,0,1-5.11,1.93c5.89,8.87,11,16.55,14.53,21.33,31.06,41.79,53.52,47.29,53.52,47.29-12.49-15.62-15.44-24-19.62-32.58-39.8-81.4-57.59-113.1-82.13-147.38a13.38,13.38,0,0,1-1.47.48,25.67,25.67,0,0,1-3.25-6.59,88.52,88.52,0,0,0-15.47-14.68C373.77,353.35,358.72,368.6,349.52,402.35Zm32,0c-7-5.59-.74-11.41-.74-11.41C388.32,398.26,381.53,402.31,381.53,402.31Zm37.67-4c-8.88,13-16.61,4.07-16.61,4.07C409,390.56,419.2,398.3,419.2,398.3Zm-.84,16.12c-7.51,21.13-21.4,11.63-21.4,11.63C401.5,407.45,418.36,414.42,418.36,414.42Zm-20.75-27.5C389,398.48,382.28,390,382.28,390,388.57,379.48,397.61,386.92,397.61,386.92Zm-19.12-8.42c8.25,6.55,1.91,11.28,1.91,11.28C372.84,384.93,378.49,378.5,378.49,378.5Z" transform="translate(-81.69 -188)"/><path class="cls-1" d="M477.94,552.14c-3.41-4-7-8.59-11.53-13.95-4.82-5.71-15.32-21.11-24-34.58-3.43,5.82-11.2,5.7-11.2,5.7-.27-8.78,2.73-12.54,5.87-14.1-3-4.84-5.49-9-6.91-11.63-.27-.51-.57-1-.85-1.53,1.12,4.29,1.34,11.69-4.56,21.76C440.41,531.44,460.06,545.38,477.94,552.14Z" transform="translate(-81.69 -188)"/><path d="M799.32,581.31c10.3-12.45-.69-17.54-.69-17.54C788.8,573.44,799.32,581.31,799.32,581.31Z" transform="translate(-81.69 -188)"/><path d="M798.91,583.08c-10.77,8.61-1.11,17.52-1.11,17.52C809.33,589.28,798.91,583.08,798.91,583.08Z" transform="translate(-81.69 -188)"/><path d="M801.75,582.38c11.28,15.1,23.88,2.29,23.88,2.29C810.67,568.41,801.75,582.38,801.75,582.38Z" transform="translate(-81.69 -188)"/><path d="M748.77,584c-12.54,18.42,6.62,27.57,6.62,27.57C767.81,588.57,748.77,584,748.77,584Z" transform="translate(-81.69 -188)"/><path d="M713.91,561.9c-18.11,27.24,10.15,40.38,10.15,40.38C741.94,568.38,713.91,561.9,713.91,561.9Z" transform="translate(-81.69 -188)"/><path d="M912.7,519.7c-17,9.76-5.33,24.33-5.33,24.33C926,530.62,912.7,519.7,912.7,519.7Z" transform="translate(-81.69 -188)"/><path d="M898.38,570c19.89-11.42,7.8-23.66,7.8-23.66C888.3,554.29,898.38,570,898.38,570Z" transform="translate(-81.69 -188)"/><path d="M910.32,546.37c10.1,24.78,32,11.7,32,11.7C927.58,530.38,910.32,546.37,910.32,546.37Z" transform="translate(-81.69 -188)"/><path d="M566.54,210c5.53-22.26-11.67-22-11.67-22C548.24,206.42,566.54,210,566.54,210Z" transform="translate(-81.69 -188)"/><path d="M567.12,212.53c-8.48,17.64,9.36,23.08,9.36,23.08C584.25,214,567.12,212.53,567.12,212.53Z" transform="translate(-81.69 -188)"/><path d="M602.27,198.12c-29.13-11.59-32,11.77-32,11.77C594,222.26,602.27,198.12,602.27,198.12Z" transform="translate(-81.69 -188)"/><path d="M858.21,438.37c-12.78,7.36-4,18.34-4,18.34C868.23,446.61,858.21,438.37,858.21,438.37Z" transform="translate(-81.69 -188)"/><path d="M847.42,476.27c15-8.61,5.88-17.83,5.88-17.83C839.82,464.45,847.42,476.27,847.42,476.27Z" transform="translate(-81.69 -188)"/><path d="M880.53,467.3c-11.1-20.88-24.1-8.83-24.1-8.83C864,477.15,880.53,467.3,880.53,467.3Z" transform="translate(-81.69 -188)"/><path d="M528.33,511c13.73-1.36,10.48-14.09,10.48-14.09C523,500.13,528.33,511,528.33,511Z" transform="translate(-81.69 -188)"/><path d="M552.1,482.87c-16.08,1.56-11.86,12.93-11.86,12.93C554,495.86,552.1,482.87,552.1,482.87Z" transform="translate(-81.69 -188)"/><path d="M527.69,392.1c3.51-9.27-5.72-11.24-5.72-11.24C519,392.08,527.69,392.1,527.69,392.1Z" transform="translate(-81.69 -188)"/><path d="M510.57,400.89c15.21,4.59,15.62-7.31,15.62-7.31C513.68,388.36,510.57,400.89,510.57,400.89Z" transform="translate(-81.69 -188)"/><path d="M560.92,251.44c-15.84,3.21-10.48,14.08-10.48,14.08C564.17,264.17,560.92,251.44,560.92,251.44Z" transform="translate(-81.69 -188)"/><path d="M562.35,250.32c13.79.06,11.87-12.93,11.87-12.93C558.13,239,562.35,250.32,562.35,250.32Z" transform="translate(-81.69 -188)"/><path d="M559.7,249.08c.7-18.84-17.14-16.78-17.14-16.78C544,254.34,559.7,249.08,559.7,249.08Z" transform="translate(-81.69 -188)"/><path d="M854.36,337c18.52-22.36-1.24-31.52-1.24-31.52C835.45,322.87,854.36,337,854.36,337Z" transform="translate(-81.69 -188)"/><path d="M851.63,371.67c20.73-20.34,2-31.47,2-31.47C834.27,355.67,851.63,371.67,851.63,371.67Z" transform="translate(-81.69 -188)"/><path d="M858.72,338.93c20.28,27.14,42.92,4.13,42.92,4.13C874.77,313.84,858.72,338.93,858.72,338.93Z" transform="translate(-81.69 -188)"/><path d="M642.93,285.32c24.54-3.48,17.73-26.08,17.73-26.08C632.47,266.21,642.93,285.32,642.93,285.32Z" transform="translate(-81.69 -188)"/><path d="M683.45,233c-28.76,4-20.31,24.13-20.31,24.13C687.9,256.16,683.45,233,683.45,233Z" transform="translate(-81.69 -188)"/><path d="M658.29,255.1c-.19-33.88-32.07-28.83-32.07-28.83C630.48,265.74,658.29,255.1,658.29,255.1Z" transform="translate(-81.69 -188)"/><path d="M542.87,319.77C542.18,306.42,529.7,309,529.7,309,532.1,324.48,542.87,319.77,542.87,319.77Z" transform="translate(-81.69 -188)"/><path d="M516.68,295.49c.79,15.65,12,12.07,12,12.07C529.35,294.2,516.68,295.49,516.68,295.49Z" transform="translate(-81.69 -188)"/><path d="M510.33,325.93c21.43-.4,17-15.86,17-15.86C509.15,308.55,510.33,325.93,510.33,325.93Z" transform="translate(-81.69 -188)"/><path d="M788.12,426.91c16-2.1,11.74-16.9,11.74-16.9C781.42,414.37,788.12,426.91,788.12,426.91Z" transform="translate(-81.69 -188)"/><path d="M804.19,485c18.8-14.47,4.71-25.34,4.71-25.34C791.67,470.26,804.19,485,804.19,485Z" transform="translate(-81.69 -188)"/><path d="M760.57,416.1c19.42-9,8.13-26,8.13-26C747.13,402.91,760.57,416.1,760.57,416.1Z" transform="translate(-81.69 -188)"/><path d="M797.69,281.31C768.22,293,783.48,319.1,783.48,319.1,816.45,301.94,797.69,281.31,797.69,281.31Z" transform="translate(-81.69 -188)"/><path d="M777.76,504.56c-12.7,13.7-.28,25.62-.28,25.62C791,512.47,777.76,504.56,777.76,504.56Z" transform="translate(-81.69 -188)"/><path d="M749,523.28c19.44-25.54.41-36.92.41-36.92C731.13,506.09,749,523.28,749,523.28Z" transform="translate(-81.69 -188)"/><path d="M325.41,301.88c-6.86-15.79-17.17-9.87-17.17-9.87C312.68,305.76,325.41,301.88,325.41,301.88Z" transform="translate(-81.69 -188)"/><path d="M752.86,278c-36.62,25.76-13.43,59.9-13.43,59.9C779.86,303.12,752.86,278,752.86,278Z" transform="translate(-81.69 -188)"/><path d="M501.85,238.39c16.79-33.15-10.48-39-10.48-39C474.25,226.11,501.85,238.39,501.85,238.39Z" transform="translate(-81.69 -188)"/><path d="M477,279.38c12.55-51.85-24-56.5-24-56.5C438.3,265.16,477,279.38,477,279.38Z" transform="translate(-81.69 -188)"/><path d="M721,288.29c16.35-20.36-1.56-28.32-1.56-28.32C703.82,275.84,721,288.29,721,288.29Z" transform="translate(-81.69 -188)"/><path d="M358.32,266.73c21.6-12.14,7.05-30.74,7.05-30.74C341.64,252.71,358.32,266.73,358.32,266.73Z" transform="translate(-81.69 -188)"/><path d="M353.1,267.15c-15.64-30-41.7-11-41.7-11C333.21,289.33,353.1,267.15,353.1,267.15Z" transform="translate(-81.69 -188)"/><path d="M828.21,543.7c-10.51,27.69,17.07,33.6,17.07,33.6C854.25,543.79,828.21,543.7,828.21,543.7Z" transform="translate(-81.69 -188)"/><path d="M276,661.17s-5.25,9.66,9,13.14C284.94,674.31,288.35,662.9,276,661.17Z" transform="translate(-81.69 -188)"/><path d="M286.2,675.39s-4.23,10.14,10.27,12.14C296.47,687.53,298.69,675.83,286.2,675.39Z" transform="translate(-81.69 -188)"/><path d="M267.62,691s16.09,2.52,16.14-14.57C283.76,676.41,269.71,671.07,267.62,691Z" transform="translate(-81.69 -188)"/><path d="M320.43,643.85s-11.51,13.52,9.83,23.75C330.26,667.6,339.43,650.69,320.43,643.85Z" transform="translate(-81.69 -188)"/><path d="M332.72,611.48s-16.9,19.86,14.44,34.87C347.16,646.35,360.64,621.51,332.72,611.48Z" transform="translate(-81.69 -188)"/><path d="M186.14,705.58s.6-16.9-17-14.83C169.11,690.75,165.35,705.89,186.14,705.58Z" transform="translate(-81.69 -188)"/><path d="M188.25,706.6s-2.18,15.45,18.47,13C206.72,719.62,205.58,702.75,188.25,706.6Z" transform="translate(-81.69 -188)"/><path d="M168.31,734.69s23-2.31,16.95-25.81C185.26,708.88,164.06,706.57,168.31,734.69Z" transform="translate(-81.69 -188)"/><path d="M164.82,602.1s-2.83,11.42,12.83,11.18C177.65,613.28,178.1,600.54,164.82,602.1Z" transform="translate(-81.69 -188)"/><path d="M179.24,614.06s-1.65,11.63,13.92,9.8C193.16,623.86,192.3,611.14,179.24,614.06Z" transform="translate(-81.69 -188)"/><path d="M177,615.76s-16-1.73-12.78,19.46C164.21,635.22,181.55,633.48,177,615.76Z" transform="translate(-81.69 -188)"/><path d="M381.53,402.31s6.79-4.05-.74-11.41C380.79,390.9,374.5,396.72,381.53,402.31Z" transform="translate(-81.69 -188)"/><path d="M380.4,389.78s6.34-4.73-1.91-11.28C378.49,378.5,372.84,384.93,380.4,389.78Z" transform="translate(-81.69 -188)"/><path d="M397.61,386.92s-9-7.44-15.33,3.11C382.28,390,389,398.48,397.61,386.92Z" transform="translate(-81.69 -188)"/><path d="M295.42,309.93s-2-10.81-15.24-4.58C280.18,305.35,284.7,316.37,295.42,309.93Z" transform="translate(-81.69 -188)"/><path d="M278.54,305.31s-3.08-10.56-15.63-3C262.91,302.31,268.53,312.8,278.54,305.31Z" transform="translate(-81.69 -188)"/><path d="M283.2,281.49s-14.1,8.15-3.4,21.49C279.8,303,294.08,298.31,283.2,281.49Z" transform="translate(-81.69 -188)"/><path d="M96.71,502.63S87.27,520,112.84,526.24C112.84,526.24,119,505.73,96.71,502.63Z" transform="translate(-81.69 -188)"/><path d="M115.1,528.16s-7.62,18.23,18.45,21.83C133.55,550,137.55,529,115.1,528.16Z" transform="translate(-81.69 -188)"/><path d="M81.69,556.19s28.91,4.53,29-26.2C110.7,530,85.46,520.4,81.69,556.19Z" transform="translate(-81.69 -188)"/><path d="M211.8,364.93s7.26,20.14,27,9.4C238.8,374.33,236.09,354.77,211.8,364.93Z" transform="translate(-81.69 -188)"/><path d="M208.84,364.72s-4.7-19.18-27.83-6.59C181,358.13,190.3,377.42,208.84,364.72Z" transform="translate(-81.69 -188)"/><path d="M219.05,322.33s-25.94,13.54-7.77,38.31C211.28,360.64,237.29,353.36,219.05,322.33Z" transform="translate(-81.69 -188)"/><path d="M414.69,310.07s-18,10.71-4,27.66C410.68,337.73,429,331.49,414.69,310.07Z" transform="translate(-81.69 -188)"/><path d="M189.91,554.88s4.88,13.09,17.69,6C207.6,560.83,205.69,548.08,189.91,554.88Z" transform="translate(-81.69 -188)"/><path d="M212.2,590.91s-4.39,15.53,17.12,15.89C229.32,606.8,230.49,589.35,212.2,590.91Z" transform="translate(-81.69 -188)"/><path d="M223.86,533.11s2.65-16.86-20-14.54C203.88,518.57,204.84,537,223.86,533.11Z" transform="translate(-81.69 -188)"/><path d="M154.75,474.88s-3-27.22-30.77-19.81C124,455.07,121.48,480.22,154.75,474.88Z" transform="translate(-81.69 -188)"/><path d="M259.15,606.8s-5.33,12.89,14.05,18.5C273.2,625.3,275.8,609.91,259.15,606.8Z" transform="translate(-81.69 -188)"/><path d="M290.17,604.9s3.75-22.19-20.25-26.66C269.92,578.24,262.22,596.82,290.17,604.9Z" transform="translate(-81.69 -188)"/><path d="M262.6,349.55s3.68-11.5-8.73-15.7C253.87,333.85,248.37,343.12,262.6,349.55Z" transform="translate(-81.69 -188)"/><path d="M197,464.78s-1.58-37.37-42.16-36.34C154.83,428.44,148.75,461.3,197,464.78Z" transform="translate(-81.69 -188)"/><path d="M320.53,397.81S298,377.5,275.59,401.54C275.59,401.54,291.13,423.71,320.53,397.81Z" transform="translate(-81.69 -188)"/><path d="M183.57,418.7s5.79-18.35-14.17-21.45C169.4,397.25,160.66,412.72,183.57,418.7Z" transform="translate(-81.69 -188)"/><path d="M243.59,662.56s-18.9,14.13,5.73,33.68C249.32,696.24,266.2,677,243.59,662.56Z" transform="translate(-81.69 -188)"/><path d="M418.36,414.42s-16.86-7-21.4,11.63C397,426.05,410.85,435.55,418.36,414.42Z" transform="translate(-81.69 -188)"/><path d="M673.68,555.79c-20.26,17.38-1.46,34.53-1.46,34.53C693.82,567.58,673.68,555.79,673.68,555.79Z" transform="translate(-81.69 -188)"/><path d="M843.38,607.6c-1.94,16.85,14.2,16.26,14.2,16.26C857.85,604,843.38,607.6,843.38,607.6Z" transform="translate(-81.69 -188)"/><path d="M825.42,536.19c-15.58-12.93-20.74-23.32-21.94-30.61,17.22,11.09,46.49,25.71,97.67,37.27,0,0-22.77-8.79-51.32-23.58,2.89-3.72,10.11-8.51,27.86-5.33,0,0-12.45-10.76-35,1.52l0,.07c-18.16-9.74-38-21.67-55.51-35.17-2-1.55-4-3-6.06-4.32,8.22-13.11,28.14-34,67-19.61,0,0-19.52-17.16-43.92-8.52.1-4.91,3-12.54,15.57-21.74,0,0-15.73,1.55-22.69,25-7.34,4.07-15,10.67-22.55,20.9-19.49-10.6-40.9-11.3-73.29,3.3C690.9,480,678.64,486,667.43,496.79c13.33-23.58,29.79-52.39,44.88-77.93,39.16,51.12,76.5,15,76.5,15-15,6.35-27.3,7.15-37.27,5,9.39-10,6.58-18.87,6.58-18.87-3.21,14-9.22,16.76-12.35,17.2-16.83-6-25.74-20.34-28.78-26.2,6-10.1,11.73-19.51,16.81-27.63A104.9,104.9,0,0,1,768,349.09c30.3,20.67,50,5.74,50,5.74-24.94,2.36-35.53-4.81-40-11,16.28-7.54,37.18-12,63.94-9.61,0,0-62.57-26.69-112,26.43,2.81-79.52-62.43-96.91-62.43-96.91,21.53,14.91,34.63,30.88,42.32,46.18C691.13,307.57,685,321.13,685,321.13c16.72-10.31,25.36-5.28,29.1-1.2a91.24,91.24,0,0,1,5.43,35.64c-7.46,1.89-27.22,6.63-52.06,10.52a13.29,13.29,0,0,1,.38-2.74c23.21-9,26.9-25.75,26.9-25.75a96.89,96.89,0,0,1-8,7.71s-10.94-.82-20.87,11.47a20.69,20.69,0,0,1-12.35-1c-1.75-10.9-5-27.72-15.81-43.48,15.82-36.65-15.36-46.92-15.36-46.92,19.58,16.05,16.31,32.93,12,42.36a83.23,83.23,0,0,0-28.84-23,84.46,84.46,0,0,0-14.43-5.63l1.67-.44c-9.49-23.81-25.87-23.61-25.87-23.61,16.39,9.4,18.35,18.07,18,22.6-16.86-3-37.12.67-50.56,28.19,0,0,21.57-29.76,59.89-15.49,5.15,1.92,19.41,9.72,30.26,26-8.06.4-25.12,3.23-35.93,19.14a14.88,14.88,0,0,1-1.56-2.88c19.12-14.26,9.89-31.39,9.89-31.39-31.92,9.38-23.77,38.93-23.77,38.93a68.82,68.82,0,0,0,9.64-4.73,53.93,53.93,0,0,0,2,6.89c-3.51,7.63-5.75,17.47-5.8,30.19a66.24,66.24,0,0,0-13,3.1,134.87,134.87,0,0,0-18.36-12.24c16.87-10.74,20.18-30.07,20.18-30.07-8.32,14-17.78,21.91-27.09,26.08,1.64-13.63-5.87-19.09-5.87-19.09,4,9.15,3.63,14.73,2.29,18a84.4,84.4,0,0,0-10.29-3.55c-2.28-12.88-12-12.7-12-12.7,7,4.49,8.18,8.75,7.85,11.72a59.84,59.84,0,0,0-26.65.22q-.39-4.14-.75-8.11c6.94,3,14.38-1.23,14.38-1.23-5.21-10.26-11.05-12.39-15.54-12-.21-2.59-.4-5.1-.59-7.53a105.12,105.12,0,0,1,7.28-47.81c36.67-1.27,43.68-24.95,43.68-24.95-18.71,16.67-31.49,17.16-38.8,14.8,8.66-15.71,22.89-31.65,45.84-45.6,0,0-66.22,15.52-74.6,87.58-16.48-24.19-35.41-36.15-52.75-41.6,4.93-25.12-14.39-24.05-14.39-24.05-4.14,13.2,2.37,19.44,7.91,22.28-26.87-6.22-48.45,2.21-48.45,2.21,26.18-.73,46.19,4.4,61.45,12.18-16.39,9.16-13.3,23.72-13.3,23.72,7.37-18.2,17.31-19.27,22.75-18.2a92.4,92.4,0,0,1,36.11,47.12c.52,11.06,1,19.95,1.67,29-.31.18-.51.32-.51.32l.51-.31c.18,2.27.37,4.56.59,6.9a25.57,25.57,0,0,0-10-.28c2,12.8,7.13,18,12.13,19.83,2.45,19.05,6.51,44.63,13.85,88.06,0,0-26.3-43-49-78.56,25-5.7,18.83-27.38,18.83-27.38-16.57-1.39-24.27,5.85-27.84,13.41-6.57-10.09-12.41-18.81-16.63-24.65a79,79,0,0,0,6.68-8.11c4.61,1.59,10.78,1.53,18.86-2.54,3.28,23.09,21.3,17.34,21.3,17.34.77-15.21-8-19.94-14.65-21.35.29-.2.57-.37.86-.58,0,0-6.54-10.18-17.31-11.85,3.05-12.47-.59-20.68-.59-20.68a82.36,82.36,0,0,1-4.8,20.6c-4.58.57-9.72,2.78-15.29,7.69a22.34,22.34,0,0,0,5,7.21,19.92,19.92,0,0,1-5.54,3,36.52,36.52,0,0,0-3.56-9.37,23.23,23.23,0,0,0-5.05,3.48,100,100,0,0,0-25.7-16.9c-.05-.19-.07-.36-.12-.57a10,10,0,0,0-1.29,0c-1.49-.63-3-1.27-4.54-1.83-3.47-15.09-10.3-22.77-17.35-26.55,14.74-13.63.41-28.51.41-28.51-13,11.33-11.93,20.24-8.9,25.61a33,33,0,0,0-14.31.74c25.28,1.34,32.63,16.88,34.74,27a81.66,81.66,0,0,0-29.46-2.4,16.22,16.22,0,0,0-3-7.24s-5.19,3.09-5.15,8.34a83.93,83.93,0,0,0-14.23,3.86l1.09-1.34c-21.75-13.57-34.84-3.71-34.84-3.71,12.75-1.44,19.92.78,24,3.57-13.12-.54-23,5.62-30.1,13.19-2.73-3.09-6-10.46.87-26.16,0,0-12,8.71-6.08,31.17l1.45-.58a76.48,76.48,0,0,0-7.46,11.9,75.45,75.45,0,0,0-8.57,32.3c-8.24-4.53-19.74-15.05-14.16-37.32,0,0-17.15,24.33,14.17,42.45.69,17.3,7.38,31.32,12,40.2-3,5.12-12.23,14.1-39.83,9,0,0,16.07,14,45.44-.39,1.62,2.16,3.62,4.7,5.88,7.52a60.81,60.81,0,0,0-5.89,11.37,40.36,40.36,0,0,1,7-10C305.45,478.3,356.38,536,356.38,536c-75.74-38.09-85.71-42-119.49-54.13A83.69,83.69,0,0,1,205.69,438c.52-5,4.1-13.32,21.84-14.85,0,0-11.79-6.57-24.1,5.19-2.68-15.3-1.78-34,5.83-56.48,0,0-38.09,47.92,6.94,104.27-64.67-12-95.78,41.29-95.78,41.29,18.21-16.18,35.8-24.25,51.73-27.57.1,7-3.73,17.91-23.17,29.68,0,0,22.39.23,33.27-31.19a95.19,95.19,0,0,1,43.37,6.44c8.09,3.16,17.34,6.94,27.17,11,1,5.9,2.22,21.15-6.78,34.62-2.52,1.36-8.39,2.62-18.29-5.85,0,0,2.73,8,15,10.18-6.1,7-15.5,13-29.83,16.51,0,0,46.73,6.13,47.6-52.25,24.79,10.44,52.34,22.52,74.78,32.48-14-1.83-26.14.49-36.25,2.7-31.46,6.9-46.67,19-55.14,37.22-11-3.35-20.16-4-27.71-3-17.73-13.29-30-5.9-30-5.9,14.15-.14,20.36,3.88,23.08,7.4-22.43,6.9-27.36,29.93-27.36,29.93,20.56-31.45,46.32-27.05,59.39-21.94-.75,2.07-1.44,4.19-2.08,6.41-5.46,19.3-13.44,38.7-21.4,55.61v-.09c-23.05,3.26-26.3,17.81-26.3,17.81,11.22-11.9,19.06-12.32,23.17-11.18C201.86,682.66,190,701.37,190,701.37c31-36.08,44.4-62.54,50.94-79.93,3.07,6,4.93,16.31.58,34.15,0,0,13.92-14.75,3-44.7,1.88-6.3,2.76-10.57,3.79-12.85,11.63-25.65,29.9-36.38,47.18-40.24a83.7,83.7,0,0,1,17.33,51.46c-1.95,4.62-7.81,11.54-25.22,7.82,0,0,9.36,9.71,24.56,2.07-1.91,15.41-8.23,33-22.08,52.32,0,0,39.87-27.41,30.05-80.59,6.38-1.5,18.25-.35,34.67,18,0,0-4.23-21.23-37-27.63-2.24-7.86-4-16-3.31-25.38,27.11-3.27,73.09,21.12,85.45,30.34,41.24,30.76,91.18,39.35,124.95,61.45,2.64,24.36,6.48,51,12.05,74.38-1.83,4.11-3.57,8.18-5.18,12.19-7,17.34-16.28,42.4-6,101.82H609.6a98.32,98.32,0,0,1-19.05-20.79c-26.48-35.3-16.68-66.12-11.64-93.29,3.32-17.92,12.67-47.41,25.4-70.51,13.5-22,27.08-45.55,35.17-72.53,4.89-16.29,29.56-68.12,55.72-83.05C702,503.73,705.77,512,709,520.48c-24.79,27.19-14.58,48.78-14.58,48.78,2.51-27,12.27-35.82,18.9-38.69,26.27,53.55,79.6,51.6,79.6,51.6-24.94-8-42.13-19.42-54-31.81,18.5-3.22,20.4-18,20.4-18-13,14.73-22.71,12.46-27.48,9.65a92.32,92.32,0,0,1-18.49-57c17.83-7.95,41.06-10.46,68.24,4.61,2.41,1.34,6,4.54,11.8,8.89C803.39,532.29,825.42,536.19,825.42,536.19ZM686.77,345.32a59,59,0,0,1-13.23,8.87A50.25,50.25,0,0,1,686.77,345.32ZM582.28,403.86c3.22,4.67,5.67,13.44,7.07,24.1-9.4,4-25.62,6.62-39.85-13.06,0,0,7.6,29.12,40.4,17.91a178,178,0,0,1,.74,20.16,15.29,15.29,0,0,1-4.78,1.32,92.39,92.39,0,0,1-48.62-35,70.1,70.1,0,0,1,27.9-27.5C571.87,394.17,578.17,397.92,582.28,403.86ZM585.9,539c.48,7,.66,12.83,1.05,18.07-9.07-14-16-33.1-15.18-58.64h0v0a152,152,0,0,1,4.06-29.7,81.49,81.49,0,0,0-8.73,21.05c-6.2-13-6.63-22-5.19-28.05a21.37,21.37,0,0,0,4.4-4.56A95.77,95.77,0,0,0,590,465.27c-.25,2.77-.55,5.52-.94,8.22C587.29,485.54,585.1,526.9,585.9,539ZM539.53,367.37A146.93,146.93,0,0,1,558.13,379a60,60,0,0,0-5.57,3.28,35.27,35.27,0,0,0-19.31,6,86.42,86.42,0,0,1,11.73-.12,88.24,88.24,0,0,0-9.92,10.55c-1.35-4.75-7-5.38-7-5.38-1,6.43,1.25,9,3.45,10a157.12,157.12,0,0,0-9.76,15.27A166.26,166.26,0,0,0,513.44,435a21.63,21.63,0,0,0-3.16,3.84c.44.3.87.56,1.29.83a90,90,0,0,0-4.41,16.23c-1.1-9.26-2.28-19.27-3.47-29.59,11.83,1.8,12.63-8.5,12.63-8.5-6.52-3-10.79-1.39-13.48,1.09-2-17.4-3.94-35.44-5.64-52.37C515.66,372,529.36,371.14,539.53,367.37Zm-9.95-4.62c-14.93,2.54-28-2.72-33.28-5.32l-.06-.63C504.73,356.17,515.94,357.27,529.58,362.75Zm-128.91-1.6a25.67,25.67,0,0,0,3.25,6.59,13.38,13.38,0,0,0,1.47-.48c24.54,34.28,42.33,66,82.13,147.38,4.18,8.54,7.13,17,19.62,32.58,0,0-22.46-5.5-53.52-47.29-3.56-4.78-8.64-12.46-14.53-21.33a13.54,13.54,0,0,0,5.11-1.93,8.77,8.77,0,0,0-3.67-5.38c9.79-30.8-5.76-45.63-5.76-45.63,4.9,17.33,3.92,28.32,1.2,35.24.39-3.14-.51-7.28-4-12.67,0,0-5.79,3.35-7.13,9.27-1.7-2.47-3.42-4.94-5.16-7.38a83.55,83.55,0,0,0-5.94-7.36c.58-1.14,1.16-2.32,1.72-3.61a30.91,30.91,0,0,0-7.59-2.35c-7.84-7.24-18-14-29.24-15.49l0,0-1-.2a22.84,22.84,0,0,0-.87-2.91c0,.95,0,1.83-.07,2.73a155.51,155.51,0,0,0-28.13-2.58C354.46,402,374.3,390,374.3,390c-9.12.33-15.57,4.64-19.88,7.94-.27.2-.53.41-.78.61a42.75,42.75,0,0,0-4.12,3.79c9.2-33.75,24.25-49,35.68-55.88A88.52,88.52,0,0,1,400.67,361.15Zm24.09,142.66c5.9-10.07,5.68-17.47,4.56-21.76.28.51.58,1,.85,1.53,1.42,2.66,3.89,6.79,6.91,11.63-3.14,1.56-6.14,5.32-5.87,14.1,0,0,7.77.12,11.2-5.7,8.68,13.47,19.18,28.87,24,34.58,4.52,5.36,8.12,9.95,11.53,13.95C460.06,545.38,440.41,531.44,424.76,503.81Zm10.8,29.49c-.3.18-.67.35-1,.52-.13-.82-.27-1.61-.41-2.41C434.61,532,435.06,532.68,435.56,533.3ZM375.41,430c-3.62,12.8-13.36,17.51-20.51,19.2a89.58,89.58,0,0,1-5.48-11.51C356.84,433.5,366.21,429.7,375.41,430Zm-28,1.14a21.08,21.08,0,0,1-.43-3.3,20.41,20.41,0,0,1,.1-2.08c2.8-.05,5.68,0,8.71.06a45.55,45.55,0,0,0-5.33,3.1l-.9.63C348.93,430,348.21,430.57,347.46,431.14Zm-62-1.57C257.61,393,272.37,358.85,277,351.69c9.17-14.14,20.75-19.76,30.64-21.71-9.9,5.66-18.7,14.76-21.24,29.46a42.73,42.73,0,0,0-5.45,1.61,21.18,21.18,0,0,0,4.75,9.69,73.7,73.7,0,0,0,1.14,10.14,43.22,43.22,0,0,1,1-8c5.38,4.67,14.86,8,31.46,3.67,0,0-7.14-18.44-26.37-18a49,49,0,0,1,11.34-14.3c.08,5.1,2.88,12.6,18.14,14,0,0,2.21-15.52-12.3-18.4a59.4,59.4,0,0,1,15.86-7,40.38,40.38,0,0,1,5.75-1.08c-2.64,2.14-6,6.59-1.47,13.47,0,0,9.71-2.24,4.36-13.75.79-.06,1.62-.11,2.48-.14,1.9,3.09,7.38,9.13,18.81,1.72a76.55,76.55,0,0,1,11.82,3.59,27.23,27.23,0,0,0,.23,8.77,17.57,17.57,0,0,0,9.12-4.3c2,1.12,4,2.35,5.95,3.71a54.37,54.37,0,0,0-19.61,14.27c-1.85-2-3.28-5.73-.62-12.77,0,0-7.16,5.11-1.86,15.71-15.92,20.1-20.25,48.23-21.2,56.45a101.33,101.33,0,0,0-30,6.2c-9.46-9-17.17-3.13-17.17-3.13,8.28-.52,11.78,2.2,13.26,4.79a62.41,62.41,0,0,0-15.21,9.76Q288.05,432.92,285.49,429.57Zm55.05,8.2a32.87,32.87,0,0,0-4.39,6.85,26.07,26.07,0,0,0-14.49-16.25,127.86,127.86,0,0,1,17.44-2.3A45.35,45.35,0,0,0,340.54,437.77Zm73.83,128.07c-10.21-15-16.72-19.79-23-25.69-53.41-50.1-77.26-74.51-98.22-100.76a75.6,75.6,0,0,1,15.64-7.48c.6,7.52,5.44,19.42,29,23.45a32,32,0,0,0-1.14-9c1.23-1,3-2.37,5.23-3.92a79.29,79.29,0,0,0,11.65,21.74c4,5.16,8.05,10.31,12,15.22-6.06,2.82-17.64,4-37.24-8.68,0,0,9.84,19.75,43.91,16.88,6.46,7.89,12.07,14.71,15.41,19.25C415.59,544.91,414.37,565.84,414.37,565.84Zm3-37.7c-5.93-9.21-29.88-38.13-37.65-46A160.17,160.17,0,0,1,357.12,453c16.15-5.16,20.61-14.89,21.3-22.77a26.84,26.84,0,0,1,5.09,1.19c3.09,1.07,6.77,3.41,10.76,6.65-5.17,2.28-10.09,7.15-13.14,16.7a21.86,21.86,0,0,0,10.17,4c-6.52,3.48-15.48,4.87-27.66.95,0,0,19.3,15.67,37.69-2.85a23.65,23.65,0,0,0,6.58-5.35,175.22,175.22,0,0,1,11.57,14.77,16.44,16.44,0,0,0-7.79,2.72s4.55,8.49,12.76,4.74c1,1.66,2.07,3.34,3.05,5,.53,11.25-2.3,17.25-5.24,20.41-1.92-3.69-3.79-7.55-5.57-11.71a61.29,61.29,0,0,0,1.21,7.91,81,81,0,0,0-31.15-23.88c26.31,22.26,36.36,45,39,64.2a30.92,30.92,0,0,1-3.49-.18C420.77,533.28,419.14,530.84,417.4,528.14Zm7.3,11.07c.48,0,1,.09,1.49.12.08.85.17,1.69.22,2.53C425.86,541,425.29,540.1,424.7,539.21Zm6.63,43.5a118.35,118.35,0,0,0,3.51-20,108.92,108.92,0,0,0,.34-24c1.35-.23,2.75-.51,4.23-.89,11.94,13.1,30.13,25,57.82,30a132.83,132.83,0,0,0,22.19,2.77s.57,20.61,2.87,49.07C477.67,598.39,431.33,582.71,431.33,582.71Zm144,67.1A141.35,141.35,0,0,0,562.3,641c-4.24-2.6-8.69-5.16-13.26-7.68-2.42-30.19-4.45-62.78-15.81-94.67-3-8.38-7.36-27.82-9.1-48.38,5.07,7.09,13.47,4.3,13.47,4.3.52-13.95-9.13-16.45-14.17-16.8-.31-12.31.62-24.3,3.63-33.88a12.55,12.55,0,0,0,6.7-3.82,69.8,69.8,0,0,1,11.08,4.62c-10.36,3.62-15.74,14.19-15.74,14.19,11.1,6.36,19.31,7.49,25.34,6.19,1.26,14.86,7.1,23.8,11.67,28.62a90.24,90.24,0,0,0-2.18,23.07c-4.87-.47-12.21-3.63-20.08-15.8,0,0-.12,13.43,20.5,21.72,1.87,17.63,9.52,38,28.87,58.4a131,131,0,0,0,16.24,15.36S593.69,619.21,575.36,649.81Zm41.5-117.34c-1.68,9.36-4.29,17.89-3.48,37.88,0,0-14.85-17.73-15.14-69.81,0-6.21.46-15.94,1-27.18a81.78,81.78,0,0,0,8.93-6.37,89,89,0,0,0,20.35-2.63C625.54,483.28,621.74,505.43,616.86,532.47Zm12.71-75.1a123.72,123.72,0,0,1-12.65,1c12.5-15.2,10.1-28.8,10.1-28.8C621,445.72,614,454,607.89,458.14c-2.75-.18-5.41-.44-8-.8.06-1.67.13-3.33.19-5,7.86-11.8,2.2-22.09,2.2-22.09a47.08,47.08,0,0,1-1.91,10.1h0c.18-12-2.67-34.64-16-47.53h0s-2.27-2.6-6.25-6.46A93.26,93.26,0,0,1,595,382.64c2.56-.33,6.94.05,13.43.15-16.08,19.85.13,39.38.13,39.38,12.71-13.3,14.83-24,13.46-31.65a56.4,56.4,0,0,0,14.72,5.12C635.52,413.37,633.32,432.54,629.57,457.37ZM637,390.74c-7.27-2.26-12-5.27-15-8.24,4.55-.28,9.72-.79,15.48-1.62C637.37,384.15,637.21,387.43,637,390.74Zm.8-20.84A365.38,365.38,0,0,1,594,371.79c-2.54-.06-5,0-7.44.11a59.76,59.76,0,0,1,.33-12c42.14,3.11,41.35-26.3,41.35-26.3-25.53-4.67-36.14,10.77-40.12,19.94,3.46-13.31,13.1-27.94,37.12-36,7.33,11.47,12.92,27,12.67,47.36C637.88,366.6,637.85,368.25,637.82,369.9Zm16.45-2.76c2.09-.39,4.06-.84,5.94-1.33-.24.49-.5.93-.74,1.44l.08,0c-1.74.25-3.52.48-5.29.72C654.26,367.72,654.27,367.41,654.27,367.14ZM649,456.56a68.89,68.89,0,0,0,9.8-6.06c-3.26,1.1-6.44,2.06-9.56,2.91,1.43-19,2.91-40.12,3.89-57.75a22.49,22.49,0,0,0,4.67-1.47c-1.59-.1-3.1-.23-4.57-.37.31-5.79.57-11.17.75-15.94,17.35-3.78,39-10.39,65.51-21.75a92.15,92.15,0,0,1-4.19,23.15c-21.9,33-28.19,43-70.22,126.51C645.1,505.79,647,483.7,649,456.56Z" transform="translate(-81.69 -188)"/><path d="M882.8,514.32c12.91,9.73,20.22-3.83,20.22-3.83C886.8,500.68,882.8,514.32,882.8,514.32Z" transform="translate(-81.69 -188)"/><path d="M828.8,475.65c15-11.55,3.76-20.24,3.76-20.24C818.8,463.92,828.8,475.65,828.8,475.65Z" transform="translate(-81.69 -188)"/><path d="M823.27,424.5c17.1,12.89,26.77-5.08,26.77-5.08C828.56,406.44,823.27,424.5,823.27,424.5Z" transform="translate(-81.69 -188)"/><path d="M826.15,319c10.52-21.25-6.91-24.81-6.91-24.81C808.46,311.33,826.15,319,826.15,319Z" transform="translate(-81.69 -188)"/><path d="M540.28,526.41c8.23,14.84,21,5,21,5C550,515.06,540.28,526.41,540.28,526.41Z" transform="translate(-81.69 -188)"/><path d="M672.11,378.81c-25.22,21.68-5.63,45.25-5.63,45.25C693.88,395.42,672.11,378.81,672.11,378.81Z" transform="translate(-81.69 -188)"/><path d="M658.72,346.08c20.94-6.88,14.61-20.73,14.61-20.73C655.28,329.39,658.72,346.08,658.72,346.08Z" transform="translate(-81.69 -188)"/><path d="M536.47,213.46c-3.84-23.41-20.08-16.13-20.08-16.13C517.62,217.53,536.47,213.46,536.47,213.46Z" transform="translate(-81.69 -188)"/><path d="M872.24,558.59c-3.42,23.19,18.92,23.07,18.92,23.07C892.37,554.21,872.24,558.59,872.24,558.59Z" transform="translate(-81.69 -188)"/><path d="M561.37,297.93c-18,13.16-3,28.2-3,28.2C577.77,308.65,561.37,297.93,561.37,297.93Z" transform="translate(-81.69 -188)"/><path d="M695.72,264.68c13.53-16.86-1.28-23.44-1.28-23.44C681.48,254.37,695.72,264.68,695.72,264.68Z" transform="translate(-81.69 -188)"/><path d="M390.76,258.59c4.36-21.17-11.83-20.26-11.83-20.26C373.4,255.92,390.76,258.59,390.76,258.59Z" transform="translate(-81.69 -188)"/><path d="M358.7,615.35s-8.48,19.21,19.17,23.61C377.87,639,382.56,616.68,358.7,615.35Z" transform="translate(-81.69 -188)"/><path d="M306.48,678.18s12.07-8.29,1.54-19.51C308,658.67,295.54,663.86,306.48,678.18Z" transform="translate(-81.69 -188)"/><path d="M171.19,678.81s12.65,5.94,16.78-8.13C188,670.68,177.69,662.91,171.19,678.81Z" transform="translate(-81.69 -188)"/><path d="M206.37,613.34s.94-13.94-13.67-12.7C192.7,600.64,189.2,613.05,206.37,613.34Z" transform="translate(-81.69 -188)"/><path d="M160.53,583.9s16.75,7.84,22.23-10.78C182.76,573.12,169.14,562.83,160.53,583.9Z" transform="translate(-81.69 -188)"/><path d="M123.64,497.89s8.73-15.15-8.37-21.8C115.27,476.09,104.5,488.1,123.64,497.89Z" transform="translate(-81.69 -188)"/><path d="M268.09,458.16s-6.86,23.86,28.56,29.9C296.65,488.06,298.17,460.31,268.09,458.16Z" transform="translate(-81.69 -188)"/><path d="M260.15,427.1s-6.51-14-21.84-7.2C238.31,419.9,241.18,433.41,260.15,427.1Z" transform="translate(-81.69 -188)"/><path d="M218.37,705.82s16.33-12,1.3-27C219.67,678.8,202.65,686.5,218.37,705.82Z" transform="translate(-81.69 -188)"/><path d="M189.22,387.84s4.79-15.19-11.74-17.75C177.48,370.09,170.25,382.9,189.22,387.84Z" transform="translate(-81.69 -188)"/><path d="M419.2,398.3s-10.19-7.74-16.61,4.07C402.59,402.37,410.32,411.31,419.2,398.3Z" transform="translate(-81.69 -188)"/></svg>